<svg xmlns="http://www.w3.org/2000/svg" viewBox="0 0 512 512">
  <defs>
    <linearGradient id="grad" x1="0%" y1="0%" x2="100%" y2="100%">
      <stop offset="0%" style="stop-color:#a855f7;stop-opacity:1" />
      <stop offset="100%" style="stop-color:#6366f1;stop-opacity:1" />
    </linearGradient>
  </defs>
  <rect width="512" height="512" fill="#000000" rx="110"/>
  <circle cx="256" cy="256" r="180" fill="url(#grad)" opacity="0.2"/>
  <path d="M 156 170 L 156 130 L 196 130 L 196 170 M 316 170 L 316 130 L 356 130 L 356 170" stroke="white" stroke-width="20" fill="none" stroke-linecap="round"/>
  <rect x="130" y="150" width="252" height="252" rx="30" fill="none" stroke="white" stroke-width="20"/>
  <line x1="130" y1="220" x2="382" y2="220" stroke="white" stroke-width="20"/>
  <g fill="white">
    <circle cx="190" cy="270" r="10"/>
    <circle cx="256" cy="270" r="10"/>
    <circle cx="322" cy="270" r="10"/>
    <circle cx="190" cy="320" r="10"/>
    <circle cx="256" cy="320" r="10"/>
    <circle cx="322" cy="320" r="10"/>
    <circle cx="190" cy="370" r="10"/>
    <circle cx="256" cy="370" r="10"/>
  </g>
  <text x="256" y="470" font-family="Arial, sans-serif" font-size="48" font-weight="bold" fill="white" text-anchor="middle">2026</text>
</svg>
